<svg width="24" height="24" viewBox="0 0 24 24" fill="none" xmlns="http://www.w3.org/2000/svg">
<path d="M19.7167 3.36572L2.24166 8.28759C2.0929 8.32826 1.9603 8.4138 1.86191 8.53256C1.76353 8.65131 1.70414 8.79751 1.69184 8.95123C1.67954 9.10496 1.71493 9.25874 1.79319 9.39162C1.87144 9.52451 1.98876 9.63004 2.12916 9.69384L10.1542 13.4907C10.3114 13.5635 10.4376 13.6898 10.5104 13.847L14.3073 21.872C14.3711 22.0124 14.4766 22.1297 14.6095 22.2079C14.7424 22.2862 14.8962 22.3216 15.0499 22.3093C15.2036 22.297 15.3498 22.2376 15.4686 22.1392C15.5873 22.0408 15.6729 21.9082 15.7135 21.7595L20.6354 4.28447C20.6727 4.15695 20.675 4.02174 20.6421 3.89302C20.6092 3.7643 20.5422 3.64681 20.4483 3.55286C20.3543 3.45891 20.2368 3.39197 20.1081 3.35904C19.9794 3.32611 19.8442 3.32842 19.7167 3.36572V3.36572Z" stroke="black" stroke-width="1.5" stroke-linecap="round" stroke-linejoin="round"/>
<path d="M10.3965 13.6032L14.634 9.36572" stroke="black" stroke-width="1.5" stroke-linecap="round" stroke-linejoin="round"/>
</svg>
