<svg width="25" height="24" viewBox="0 0 25 24" fill="none" xmlns="http://www.w3.org/2000/svg">
<path d="M12.5753 8.87604C10.855 8.87604 9.45109 10.2799 9.45109 12.0003C9.45109 13.7206 10.855 15.1245 12.5753 15.1245C14.2956 15.1245 15.6995 13.7206 15.6995 12.0003C15.6995 10.2799 14.2956 8.87604 12.5753 8.87604ZM21.9456 12.0003C21.9456 10.7065 21.9573 9.42448 21.8847 8.13307C21.812 6.63307 21.4698 5.30182 20.373 4.20495C19.2737 3.10573 17.9448 2.76588 16.4448 2.69323C15.1511 2.62057 13.8691 2.63229 12.5776 2.63229C11.2839 2.63229 10.0019 2.62057 8.71046 2.69323C7.21046 2.76588 5.87921 3.10807 4.78234 4.20495C3.68312 5.30416 3.34328 6.63307 3.27062 8.13307C3.19796 9.42682 3.20968 10.7089 3.20968 12.0003C3.20968 13.2917 3.19796 14.576 3.27062 15.8674C3.34328 17.3674 3.68546 18.6987 4.78234 19.7956C5.88156 20.8948 7.21046 21.2346 8.71046 21.3073C10.0042 21.3799 11.2862 21.3682 12.5776 21.3682C13.8714 21.3682 15.1534 21.3799 16.4448 21.3073C17.9448 21.2346 19.2761 20.8924 20.373 19.7956C21.4722 18.6964 21.812 17.3674 21.8847 15.8674C21.9597 14.576 21.9456 13.294 21.9456 12.0003ZM12.5753 16.8073C9.91515 16.8073 7.76828 14.6604 7.76828 12.0003C7.76828 9.3401 9.91515 7.19323 12.5753 7.19323C15.2355 7.19323 17.3823 9.3401 17.3823 12.0003C17.3823 14.6604 15.2355 16.8073 12.5753 16.8073ZM17.5792 8.11901C16.9581 8.11901 16.4566 7.61744 16.4566 6.99635C16.4566 6.37526 16.9581 5.8737 17.5792 5.8737C18.2003 5.8737 18.7019 6.37526 18.7019 6.99635C18.7021 7.14383 18.6731 7.2899 18.6168 7.42619C18.5604 7.56248 18.4777 7.68632 18.3735 7.7906C18.2692 7.89489 18.1453 7.97757 18.0091 8.03393C17.8728 8.09028 17.7267 8.11919 17.5792 8.11901Z" fill="#B4B4B4"/>
</svg>
