<svg width="32" height="32" viewBox="0 0 32 32" fill="none" xmlns="http://www.w3.org/2000/svg">
<path fill-rule="evenodd" clip-rule="evenodd" d="M29.334 16.0003C29.334 8.63648 23.364 2.66699 16.0007 2.66699C8.63725 2.66699 2.66732 8.63648 2.66732 16.0003C2.66732 23.3633 8.6377 29.3337 16.0007 29.3337C23.3636 29.3337 29.334 23.3633 29.334 16.0003ZM27.334 16.0003C27.334 22.2587 22.259 27.3337 16.0007 27.3337C9.74227 27.3337 4.66732 22.2587 4.66732 16.0003C4.66732 9.74109 9.74179 4.66699 16.0007 4.66699C22.2595 4.66699 27.334 9.74109 27.334 16.0003ZM18.7264 11.9687C19.0177 11.5779 18.9866 11.0223 18.6323 10.6665C18.2427 10.2751 17.6095 10.2737 17.2181 10.6634L12.5701 15.2914L12.4728 15.4037C12.1808 15.7958 12.2133 16.3534 12.5701 16.7087L17.2181 21.3367L17.3305 21.4333C17.7226 21.7229 18.2781 21.6894 18.6323 21.3336L18.7289 21.2213C19.0186 20.8292 18.9851 20.2737 18.6293 19.9194L14.694 15.9987L18.6293 12.0807L18.7264 11.9687Z" fill="white"/>
</svg>
