<svg width="342" height="376" viewBox="0 0 342 376" fill="none" xmlns="http://www.w3.org/2000/svg">
<g clip-path="url(#clip0_906_3679)">
<path d="M237.482 76.2822C213.774 72.4936 186.777 70.4721 158.66 70.4721C132.929 70.4721 108.138 72.1626 85.9512 75.3503C85.9564 75.0091 85.9613 74.668 85.9765 74.3268C86.5647 54.5233 94.8653 35.7357 109.104 21.9796C123.343 8.22355 142.391 0.590282 162.176 0.711318C181.961 0.832353 200.914 8.69809 214.984 22.6274C229.054 36.5566 237.125 55.4444 237.472 75.2536C237.477 75.5998 237.482 75.941 237.482 76.2822Z" fill="#009797"/>
<g opacity="0.1">
<path d="M171.654 0.683022C161.131 -0.74026 150.427 0.0664146 140.235 3.05076C130.043 6.0351 120.591 11.1305 112.492 18.0068C104.393 24.883 97.827 33.3867 93.2198 42.9666C88.6126 52.5465 86.067 62.9889 85.748 73.617C85.7326 73.9581 85.7276 74.2993 85.7227 74.6405C92.3141 73.6934 99.14 72.8819 106.148 72.2043C107.005 54.4983 114.025 37.6516 125.991 24.5873C137.956 11.5231 154.112 3.06579 171.654 0.683022Z" fill="white"/>
</g>
<path d="M270.628 82.3011C259.715 79.3387 248.645 76.9859 237.472 75.2536C219.157 72.4117 200.694 70.635 182.175 69.9323C174.46 69.6166 166.603 69.4536 158.66 69.4536C152.365 69.4536 146.12 69.5555 139.962 69.7591C121.897 70.2936 103.875 71.8184 85.9765 74.3268C72.7272 76.1536 59.6065 78.817 46.6928 82.3011C16.583 90.6369 0 101.809 0 113.755C0 125.701 16.583 136.873 46.6928 145.209C67.8679 151.075 93.9756 155.073 122.423 156.906C134.165 157.67 146.303 158.057 158.66 158.057C171.058 158.057 183.237 157.665 195.015 156.901C220.904 155.225 244.855 151.758 264.902 146.717C265.008 146.686 265.11 146.661 265.217 146.635C266.57 146.299 267.902 145.948 269.219 145.596C269.692 145.464 270.16 145.337 270.628 145.209C270.654 145.198 270.681 145.19 270.709 145.184C271.157 145.062 271.599 144.934 272.041 144.812C272.926 144.557 273.801 144.308 274.66 144.048C274.701 144.038 274.736 144.028 274.772 144.018C275.52 143.794 276.252 143.57 276.979 143.346C277.574 143.157 278.164 142.974 278.749 142.785C279.176 142.648 279.598 142.51 280.015 142.373C280.32 142.271 280.62 142.174 280.915 142.073C281.317 141.94 281.719 141.803 282.115 141.665C282.283 141.609 282.451 141.553 282.614 141.492C282.995 141.365 283.366 141.232 283.737 141.1C284.139 140.957 284.541 140.81 284.937 140.667C285.268 140.55 285.599 140.428 285.924 140.306C286.199 140.199 286.468 140.097 286.743 139.995C287.49 139.715 288.223 139.425 288.945 139.139C289.306 138.992 289.667 138.849 290.023 138.702C290.374 138.559 290.73 138.411 291.076 138.264C291.645 138.024 292.204 137.785 292.754 137.546C293.018 137.423 293.288 137.306 293.547 137.194C293.745 137.103 293.938 137.016 294.137 136.924C294.279 136.863 294.422 136.797 294.559 136.731C295.072 136.497 295.581 136.257 296.079 136.018C297.991 135.101 299.776 134.164 301.434 133.207C311.833 127.244 317.32 120.63 317.32 113.755C317.32 101.809 300.737 90.6369 270.628 82.3011ZM270.353 144.232C249.153 150.103 222.974 154.1 194.45 155.918C182.851 156.656 170.86 157.038 158.66 157.038C146.501 157.038 134.551 156.661 122.987 155.923C94.4181 154.11 68.1984 150.113 46.9674 144.232C17.3356 136.023 1.01705 125.202 1.01705 113.755C1.01871 112.744 1.14514 111.736 1.39348 110.756C3.98677 100.429 19.9393 90.7642 46.9674 83.2788C59.7836 79.8219 72.8037 77.1738 85.9511 75.3503C103.957 72.8277 122.088 71.2978 140.262 70.7674C146.324 70.5688 152.456 70.4703 158.66 70.472C166.497 70.472 174.247 70.6299 181.864 70.9354C200.492 71.6318 219.062 73.4171 237.482 76.2822C248.559 78.0067 259.533 80.3425 270.353 83.2788C297.376 90.7642 313.324 100.424 315.922 110.746C316.174 111.729 316.303 112.74 316.303 113.755C316.303 125.202 299.985 136.023 270.353 144.232Z" fill="#3F3D56"/>
<path d="M317.03 114.219C317.03 121.022 311.431 127.458 301.433 133.207C299.771 134.164 297.981 135.101 296.079 136.018C295.58 136.257 295.072 136.497 294.558 136.731C294.421 136.797 294.278 136.863 294.136 136.924C293.938 137.016 293.745 137.103 293.546 137.194C293.287 137.306 293.017 137.423 292.753 137.546C292.204 137.785 291.644 138.024 291.075 138.264C290.729 138.411 290.373 138.559 290.022 138.701C289.666 138.849 289.305 138.992 288.944 139.139C288.222 139.425 287.49 139.715 286.742 139.995C286.467 140.097 286.198 140.199 285.923 140.306C285.598 140.428 285.267 140.55 284.937 140.667C284.54 140.81 284.138 140.957 283.737 141.1C283.365 141.232 282.994 141.365 282.613 141.492C282.45 141.553 282.282 141.609 282.114 141.665C281.718 141.803 281.316 141.94 280.914 142.072C280.619 142.174 280.319 142.271 280.014 142.373C279.597 142.51 279.175 142.648 278.748 142.785C278.163 142.974 277.573 143.157 276.978 143.346C276.251 143.57 275.519 143.794 274.771 144.018C274.736 144.028 274.7 144.038 274.659 144.048C273.8 144.308 272.926 144.557 272.041 144.812C271.598 144.934 271.156 145.062 270.708 145.184C270.68 145.19 270.653 145.198 270.627 145.209C270.159 145.337 269.691 145.464 269.218 145.596C267.906 145.943 266.569 146.294 265.216 146.635C265.109 146.66 265.008 146.686 264.901 146.717C245.399 151.595 221.473 155.149 194.994 156.865C183.394 157.614 171.301 158.011 158.878 158.011C146.343 158.011 134.148 157.609 122.458 156.845C52.6673 152.287 0.726562 134.933 0.726562 114.219C0.732057 112.958 0.923925 111.705 1.29592 110.501C1.32647 110.588 1.357 110.669 1.39276 110.756C8.64919 129.841 60.1479 145.265 126.968 149.028C137.205 149.609 147.808 149.909 158.66 149.909C169.557 149.909 180.201 149.604 190.478 149.023C257.242 145.245 308.69 129.816 315.921 110.746C316.043 110.44 316.15 110.135 316.242 109.829C316.757 111.235 317.024 112.721 317.03 114.219Z" fill="#3F3D56"/>
<path d="M46.6163 108.737C38.153 108.737 29.1582 106.914 29.1582 103.535C29.1582 100.156 38.153 98.3323 46.6163 98.3323C55.0795 98.3323 64.0743 100.156 64.0743 103.535C64.0743 106.914 55.0795 108.737 46.6163 108.737ZM46.6163 99.3508C36.9273 99.3508 30.1753 101.556 30.1753 103.535C30.1753 105.514 36.9273 107.719 46.6163 107.719C56.3052 107.719 63.0573 105.514 63.0573 103.535C63.0573 101.556 56.3052 99.3508 46.6163 99.3508Z" fill="#3F3D56"/>
<path d="M82.7217 132.67C74.2585 132.67 65.2637 130.847 65.2637 127.468C65.2637 124.089 74.2585 122.265 82.7217 122.265C91.185 122.265 100.18 124.089 100.18 127.468C100.18 130.847 91.185 132.67 82.7217 132.67ZM82.7217 123.284C73.0328 123.284 66.2807 125.489 66.2807 127.468C66.2807 129.447 73.0328 131.652 82.7217 131.652C92.4106 131.652 99.1627 129.447 99.1627 127.468C99.1627 125.489 92.4106 123.284 82.7217 123.284Z" fill="#3F3D56"/>
<path d="M270.368 108.737C261.905 108.737 252.91 106.914 252.91 103.535C252.91 100.156 261.905 98.3323 270.368 98.3323C278.831 98.3323 287.826 100.156 287.826 103.535C287.826 106.914 278.831 108.737 270.368 108.737ZM270.368 99.3508C260.679 99.3508 253.927 101.556 253.927 103.535C253.927 105.514 260.679 107.719 270.368 107.719C280.057 107.719 286.809 105.514 286.809 103.535C286.809 101.556 280.057 99.3508 270.368 99.3508Z" fill="#3F3D56"/>
<path d="M234.263 132.67C225.799 132.67 216.805 130.847 216.805 127.468C216.805 124.089 225.8 122.265 234.263 122.265C242.726 122.265 251.721 124.089 251.721 127.468C251.721 130.847 242.726 132.67 234.263 132.67ZM234.263 123.284C224.574 123.284 217.822 125.489 217.822 127.468C217.822 129.447 224.574 131.652 234.263 131.652C243.952 131.652 250.704 129.447 250.704 127.468C250.704 125.489 243.952 123.284 234.263 123.284Z" fill="#3F3D56"/>
<path d="M158.491 143.873C150.028 143.873 141.033 142.05 141.033 138.671C141.033 135.291 150.028 133.468 158.491 133.468C166.955 133.468 175.949 135.291 175.949 138.671C175.949 142.05 166.955 143.873 158.491 143.873ZM158.491 134.486C148.802 134.486 142.05 136.692 142.05 138.671C142.05 140.649 148.802 142.855 158.491 142.855C168.18 142.855 174.932 140.649 174.932 138.671C174.932 136.692 168.18 134.486 158.491 134.486Z" fill="#3F3D56"/>
<path d="M171.362 250.898C183.162 250.898 192.727 241.32 192.727 229.505C192.727 217.689 183.162 208.111 171.362 208.111C159.563 208.111 149.998 217.689 149.998 229.505C149.998 241.32 159.563 250.898 171.362 250.898Z" fill="#2F2E41"/>
<path d="M163.238 243.56L152.84 248.774L155.746 254.585L166.144 249.371L163.238 243.56Z" fill="#2F2E41"/>
<path d="M157.116 253.996C157.733 253.059 156.211 250.965 153.717 249.319C151.223 247.672 148.702 247.097 148.085 248.033C147.469 248.969 148.99 251.063 151.484 252.71C153.978 254.356 156.5 254.932 157.116 253.996Z" fill="#2F2E41"/>
<path d="M179.486 243.56L176.58 249.371L186.978 254.585L189.884 248.774L179.486 243.56Z" fill="#2F2E41"/>
<path d="M191.239 252.71C193.733 251.063 195.254 248.969 194.638 248.033C194.021 247.097 191.5 247.672 189.006 249.319C186.512 250.965 184.99 253.059 185.607 253.996C186.223 254.932 188.745 254.356 191.239 252.71Z" fill="#2F2E41"/>
<path d="M169.866 231.583C173.899 231.583 177.168 228.31 177.168 224.272C177.168 220.234 173.899 216.96 169.866 216.96C165.834 216.96 162.564 220.234 162.564 224.272C162.564 228.31 165.834 231.583 169.866 231.583Z" fill="white"/>
<path d="M171.642 222.87C172.589 221.922 172.584 220.38 171.63 219.425C170.677 218.471 169.137 218.465 168.19 219.413C167.244 220.361 167.249 221.903 168.203 222.858C169.156 223.812 170.696 223.818 171.642 222.87Z" fill="#3F3D56"/>
<path d="M188.215 206.231C188.536 198.311 181.719 191.603 172.989 191.247C164.259 190.892 156.921 197.025 156.6 204.945C156.279 212.865 162.347 214.665 171.078 215.02C179.808 215.375 187.894 214.151 188.215 206.231Z" fill="#009797"/>
<path d="M200.531 240.707C201.936 239.499 199.96 234.886 196.117 230.403C192.274 225.921 188.02 223.267 186.615 224.475C185.21 225.683 187.186 230.296 191.028 234.778C194.871 239.26 199.126 241.915 200.531 240.707Z" fill="#2F2E41"/>
<path d="M151.756 234.778C155.599 230.296 157.575 225.683 156.17 224.474C154.764 223.266 150.51 225.921 146.667 230.403C142.824 234.886 140.848 239.499 142.253 240.707C143.659 241.915 147.913 239.26 151.756 234.778Z" fill="#2F2E41"/>
<path d="M177.23 237.935C177.461 239.207 177.178 240.519 176.444 241.582C175.709 242.645 174.583 243.372 173.313 243.604C172.042 243.836 170.732 243.552 169.671 242.817C168.609 242.081 167.883 240.953 167.652 239.681L167.65 239.672C167.171 237.023 169.216 236.086 171.862 235.606C174.507 235.126 176.751 235.286 177.23 237.935Z" fill="white"/>
<path d="M135.267 252.261C134.997 252.261 134.739 252.154 134.548 251.963C134.357 251.772 134.25 251.513 134.25 251.243V191.156C134.25 190.885 134.357 190.626 134.548 190.435C134.739 190.244 134.997 190.137 135.267 190.137C135.537 190.137 135.795 190.244 135.986 190.435C136.177 190.626 136.284 190.885 136.284 191.156V251.243C136.284 251.513 136.177 251.772 135.986 251.963C135.795 252.154 135.537 252.261 135.267 252.261Z" fill="#CCCCCC"/>
<path d="M120.013 306.238C119.743 306.238 119.485 306.13 119.294 305.939C119.103 305.748 118.996 305.489 118.996 305.219V261.427C118.996 261.157 119.103 260.898 119.294 260.707C119.485 260.516 119.743 260.409 120.013 260.409C120.283 260.409 120.542 260.516 120.732 260.707C120.923 260.898 121.03 261.157 121.03 261.427V305.219C121.03 305.489 120.923 305.748 120.732 305.939C120.542 306.13 120.283 306.238 120.013 306.238Z" fill="#CCCCCC"/>
<path d="M159.169 270.084C158.9 270.084 158.641 269.976 158.45 269.785C158.26 269.594 158.152 269.335 158.152 269.065V208.978C158.152 208.708 158.259 208.449 158.45 208.258C158.641 208.067 158.9 207.96 159.169 207.96C159.439 207.96 159.698 208.067 159.889 208.258C160.079 208.449 160.186 208.708 160.186 208.978V269.065C160.186 269.335 160.079 269.594 159.889 269.785C159.698 269.976 159.439 270.084 159.169 270.084Z" fill="#CCCCCC"/>
<path d="M144.421 313.367C144.152 313.367 143.893 313.259 143.702 313.068C143.511 312.877 143.404 312.618 143.404 312.348V287.906C143.404 287.636 143.511 287.377 143.702 287.186C143.893 286.995 144.152 286.888 144.421 286.888C144.691 286.888 144.95 286.995 145.14 287.186C145.331 287.377 145.438 287.636 145.438 287.906V312.348C145.438 312.618 145.331 312.877 145.14 313.068C144.95 313.259 144.691 313.367 144.421 313.367Z" fill="#CCCCCC"/>
<path d="M165.271 188.1C165.001 188.1 164.743 187.993 164.552 187.802C164.361 187.611 164.254 187.352 164.254 187.082V162.64C164.254 162.37 164.361 162.11 164.552 161.92C164.743 161.729 165.001 161.621 165.271 161.621C165.541 161.621 165.799 161.729 165.99 161.92C166.181 162.11 166.288 162.37 166.288 162.64V187.082C166.288 187.352 166.181 187.611 165.99 187.802C165.799 187.993 165.541 188.1 165.271 188.1Z" fill="#CCCCCC"/>
<path d="M114.419 198.794C114.15 198.794 113.891 198.686 113.7 198.495C113.51 198.304 113.402 198.045 113.402 197.775V173.333C113.402 173.063 113.509 172.804 113.7 172.613C113.891 172.422 114.15 172.315 114.419 172.315C114.689 172.315 114.948 172.422 115.139 172.613C115.329 172.804 115.436 173.063 115.436 173.333V197.775C115.436 198.045 115.329 198.304 115.139 198.495C114.948 198.686 114.689 198.794 114.419 198.794Z" fill="#CCCCCC"/>
<path d="M202.902 201.34C202.632 201.34 202.373 201.233 202.183 201.042C201.992 200.851 201.885 200.592 201.885 200.321V175.879C201.885 175.609 201.992 175.35 202.183 175.159C202.373 174.968 202.632 174.861 202.902 174.861C203.172 174.861 203.43 174.968 203.621 175.159C203.812 175.35 203.919 175.609 203.919 175.879V200.321C203.919 200.592 203.812 200.851 203.621 201.042C203.43 201.233 203.172 201.34 202.902 201.34Z" fill="#CCCCCC"/>
<path d="M200.869 277.722C200.599 277.722 200.34 277.615 200.149 277.424C199.959 277.233 199.852 276.974 199.852 276.703V247.169C199.852 246.899 199.959 246.64 200.149 246.449C200.34 246.258 200.599 246.151 200.869 246.151C201.138 246.151 201.397 246.258 201.588 246.449C201.778 246.64 201.886 246.899 201.886 247.169V276.703C201.886 276.974 201.778 277.233 201.588 277.424C201.397 277.615 201.138 277.722 200.869 277.722Z" fill="#CCCCCC"/>
<path d="M180.527 303.692C180.257 303.692 179.998 303.584 179.808 303.393C179.617 303.202 179.51 302.943 179.51 302.673V258.881C179.51 258.611 179.617 258.352 179.808 258.161C179.998 257.97 180.257 257.863 180.527 257.863C180.797 257.863 181.055 257.97 181.246 258.161C181.437 258.352 181.544 258.611 181.544 258.881V302.673C181.544 302.943 181.437 303.202 181.246 303.393C181.055 303.584 180.797 303.692 180.527 303.692Z" fill="#CCCCCC"/>
<path d="M184.595 228.837C184.325 228.837 184.067 228.73 183.876 228.539C183.685 228.348 183.578 228.089 183.578 227.819V167.732C183.578 167.462 183.685 167.203 183.876 167.012C184.067 166.821 184.325 166.713 184.595 166.713C184.865 166.713 185.124 166.821 185.314 167.012C185.505 167.203 185.612 167.462 185.612 167.732V227.819C185.612 228.089 185.505 228.348 185.314 228.539C185.124 228.73 184.865 228.837 184.595 228.837Z" fill="#CCCCCC"/>
<path d="M309.283 356.699C310.739 355.479 308.772 350.725 304.889 346.082C301.007 341.439 296.679 338.664 295.224 339.884C293.768 341.105 295.735 345.858 299.618 350.502C303.5 355.145 307.828 357.92 309.283 356.699Z" fill="#2F2E41"/>
<path d="M299.735 351.419C303.56 339.929 297.359 327.509 285.884 323.679C274.409 319.849 262.006 326.059 258.182 337.549C254.357 349.039 260.558 361.459 272.033 365.289C283.508 369.119 295.911 362.909 299.735 351.419Z" fill="#2F2E41"/>
<path d="M288.228 361.695H281.574V373.632H288.228V361.695Z" fill="#2F2E41"/>
<path d="M274.921 361.695H268.268V373.632H274.921V361.695Z" fill="#2F2E41"/>
<path d="M282.683 375.853C285.745 375.853 288.228 374.921 288.228 373.771C288.228 372.621 285.745 371.689 282.683 371.689C279.621 371.689 277.139 372.621 277.139 373.771C277.139 374.921 279.621 375.853 282.683 375.853Z" fill="#2F2E41"/>
<path d="M269.377 375.575C272.439 375.575 274.921 374.643 274.921 373.493C274.921 372.343 272.439 371.411 269.377 371.411C266.314 371.411 263.832 372.343 263.832 373.493C263.832 374.643 266.314 375.575 269.377 375.575Z" fill="#2F2E41"/>
<path d="M272.081 316.917C274.037 309.031 282.669 304.39 291.362 306.551C300.055 308.713 305.516 316.858 303.561 324.744C301.605 332.63 295.117 332.656 286.424 330.494C277.732 328.333 270.126 324.803 272.081 316.917Z" fill="#CCCCCC"/>
<path d="M264.185 339.007C264.999 337.289 261.228 333.793 255.764 331.198C250.3 328.603 245.211 327.891 244.397 329.609C243.583 331.327 247.354 334.823 252.818 337.418C258.282 340.013 263.371 340.725 264.185 339.007Z" fill="#2F2E41"/>
<path d="M275.685 347.168C279.717 347.168 282.986 343.895 282.986 339.857C282.986 335.818 279.717 332.545 275.685 332.545C271.652 332.545 268.383 335.818 268.383 339.857C268.383 343.895 271.652 347.168 275.685 347.168Z" fill="white"/>
<path d="M272.684 339.673C274.028 339.673 275.118 338.582 275.118 337.236C275.118 335.89 274.028 334.798 272.684 334.798C271.34 334.798 270.25 335.89 270.25 337.236C270.25 338.582 271.34 339.673 272.684 339.673Z" fill="#3F3D56"/>
<path d="M275.621 358.178C277.307 358.178 278.673 356.81 278.673 355.122C278.673 353.435 277.307 352.067 275.621 352.067C273.936 352.067 272.57 353.435 272.57 355.122C272.57 356.81 273.936 358.178 275.621 358.178Z" fill="white"/>
<path d="M341.491 376H221.479C221.344 376 221.215 375.946 221.12 375.851C221.024 375.755 220.971 375.626 220.971 375.491C220.971 375.356 221.024 375.226 221.12 375.131C221.215 375.035 221.344 374.982 221.479 374.982H341.491C341.626 374.982 341.756 375.035 341.851 375.131C341.946 375.226 342 375.356 342 375.491C342 375.626 341.946 375.755 341.851 375.851C341.756 375.946 341.626 376 341.491 376Z" fill="#3F3D56"/>
</g>
<defs>
<clipPath id="clip0_906_3679">
<rect width="342" height="376" fill="white"/>
</clipPath>
</defs>
</svg>
