<svg width="32" height="32" viewBox="0 0 32 32" fill="none" xmlns="http://www.w3.org/2000/svg">
<path fill-rule="evenodd" clip-rule="evenodd" d="M2.66602 15.9997C2.66602 23.3635 8.63595 29.333 15.9993 29.333C23.3627 29.333 29.3327 23.3635 29.3327 15.9997C29.3327 8.63672 23.3623 2.66634 15.9993 2.66634C8.6364 2.66634 2.66602 8.63672 2.66602 15.9997ZM4.66602 15.9997C4.66602 9.74129 9.74097 4.66634 15.9993 4.66634C22.2577 4.66634 27.3327 9.74129 27.3327 15.9997C27.3327 22.2589 22.2582 27.333 15.9993 27.333C9.74049 27.333 4.66602 22.2589 4.66602 15.9997ZM13.2736 20.0313C12.9823 20.4221 13.0134 20.9777 13.3677 21.3335C13.7573 21.7249 14.3905 21.7263 14.7819 21.3366L19.4299 16.7086L19.5272 16.5963C19.8192 16.2042 19.7867 15.6466 19.4299 15.2913L14.7819 10.6633L14.6695 10.5667C14.2774 10.2771 13.7219 10.3106 13.3677 10.6664L13.2711 10.7787C12.9814 11.1708 13.0149 11.7263 13.3707 12.0806L17.306 16.0013L13.3707 19.9193L13.2736 20.0313Z" fill="white"/>
</svg>
