<svg width="22" height="16" viewBox="0 0 22 16" fill="none" xmlns="http://www.w3.org/2000/svg">
<path d="M1.25001 11.675C1.24906 11.5023 1.3085 11.3346 1.41807 11.2011C1.52763 11.0676 1.68042 10.9765 1.85001 10.9437C2.52456 10.8005 3.12946 10.43 3.56349 9.89412C3.99752 9.35826 4.23435 8.68959 4.23435 8C4.23435 7.31041 3.99752 6.64174 3.56349 6.10588C3.12946 5.57002 2.52456 5.19948 1.85001 5.05625C1.68042 5.02346 1.52763 4.93242 1.41807 4.79889C1.3085 4.66535 1.24906 4.49773 1.25001 4.325V2C1.25001 1.80109 1.32903 1.61032 1.46968 1.46967C1.61033 1.32902 1.8011 1.25 2.00001 1.25H20C20.1989 1.25 20.3897 1.32902 20.5303 1.46967C20.671 1.61032 20.75 1.80109 20.75 2V4.325C20.751 4.49773 20.6915 4.66535 20.582 4.79889C20.4724 4.93242 20.3196 5.02346 20.15 5.05625C19.4755 5.19948 18.8706 5.57002 18.4365 6.10588C18.0025 6.64174 17.7657 7.31041 17.7657 8C17.7657 8.68959 18.0025 9.35826 18.4365 9.89412C18.8706 10.43 19.4755 10.8005 20.15 10.9437C20.3196 10.9765 20.4724 11.0676 20.582 11.2011C20.6915 11.3346 20.751 11.5023 20.75 11.675V14C20.75 14.1989 20.671 14.3897 20.5303 14.5303C20.3897 14.671 20.1989 14.75 20 14.75H2.00001C1.8011 14.75 1.61033 14.671 1.46968 14.5303C1.32903 14.3897 1.25001 14.1989 1.25001 14V11.675Z" stroke="white" stroke-width="1.5" stroke-linecap="round" stroke-linejoin="round"/>
</svg>
